<svg width="77" height="82" viewBox="0 0 77 82" fill="none" xmlns="http://www.w3.org/2000/svg">
<circle cx="32.8854" cy="32.8854" r="32.8854" fill="#B8BA21" fill-opacity="0.5"/>
<circle cx="32.8854" cy="32.8854" r="32.3854" stroke="#B8BA21" stroke-opacity="0.6"/>
<path d="M24.837 48.8335V44.5535H21.637V40.6735H24.837V37.5535H21.637V32.5935H24.837V20.2735H33.957C37.637 20.2735 40.317 21.0202 41.997 22.5135C43.7036 24.0068 44.557 26.0602 44.557 28.6735C44.557 30.2202 44.2103 31.6735 43.517 33.0335C42.8236 34.3935 41.6636 35.4868 40.037 36.3135C38.437 37.1402 36.2503 37.5535 33.477 37.5535H30.877V40.6735H37.037V44.5535H30.877V48.8335H24.837ZM32.877 32.5935C34.5836 32.5935 35.9303 32.3002 36.917 31.7135C37.9303 31.1268 38.437 30.1802 38.437 28.8735C38.437 26.4468 36.837 25.2335 33.637 25.2335H30.877V32.5935H32.877Z" fill="white"/>
<path d="M24.837 48.8335H23.837V49.8335H24.837V48.8335ZM24.837 44.5535H25.837V43.5535H24.837V44.5535ZM21.637 44.5535H20.637V45.5535H21.637V44.5535ZM21.637 40.6735V39.6735H20.637V40.6735H21.637ZM24.837 40.6735V41.6735H25.837V40.6735H24.837ZM24.837 37.5535H25.837V36.5535H24.837V37.5535ZM21.637 37.5535H20.637V38.5535H21.637V37.5535ZM21.637 32.5935V31.5935H20.637V32.5935H21.637ZM24.837 32.5935V33.5935H25.837V32.5935H24.837ZM24.837 20.2735V19.2735H23.837V20.2735H24.837ZM41.997 22.5135L41.3326 23.2609L41.3385 23.2661L41.997 22.5135ZM43.517 33.0335L44.4079 33.4877L44.4079 33.4877L43.517 33.0335ZM40.037 36.3135L39.5839 35.422L39.578 35.4251L40.037 36.3135ZM30.877 37.5535V36.5535H29.877V37.5535H30.877ZM30.877 40.6735H29.877V41.6735H30.877V40.6735ZM37.037 40.6735H38.037V39.6735H37.037V40.6735ZM37.037 44.5535V45.5535H38.037V44.5535H37.037ZM30.877 44.5535V43.5535H29.877V44.5535H30.877ZM30.877 48.8335V49.8335H31.877V48.8335H30.877ZM36.917 31.7135L36.4159 30.848L36.4059 30.854L36.917 31.7135ZM30.877 25.2335V24.2335H29.877V25.2335H30.877ZM30.877 32.5935H29.877V33.5935H30.877V32.5935ZM25.837 48.8335V44.5535H23.837V48.8335H25.837ZM24.837 43.5535H21.637V45.5535H24.837V43.5535ZM22.637 44.5535V40.6735H20.637V44.5535H22.637ZM21.637 41.6735H24.837V39.6735H21.637V41.6735ZM25.837 40.6735V37.5535H23.837V40.6735H25.837ZM24.837 36.5535H21.637V38.5535H24.837V36.5535ZM22.637 37.5535V32.5935H20.637V37.5535H22.637ZM21.637 33.5935H24.837V31.5935H21.637V33.5935ZM25.837 32.5935V20.2735H23.837V32.5935H25.837ZM24.837 21.2735H33.957V19.2735H24.837V21.2735ZM33.957 21.2735C37.5383 21.2735 39.9214 22.0065 41.3326 23.2609L42.6613 21.7661C40.7125 20.0338 37.7357 19.2735 33.957 19.2735V21.2735ZM41.3385 23.2661C42.794 24.5397 43.557 26.2998 43.557 28.6735H45.557C45.557 25.8205 44.6133 23.474 42.6555 21.7609L41.3385 23.2661ZM43.557 28.6735C43.557 30.0644 43.2467 31.3619 42.6261 32.5793L44.4079 33.4877C45.1739 31.9851 45.557 30.3759 45.557 28.6735H43.557ZM42.6261 32.5793C42.0464 33.7164 41.0599 34.6719 39.5839 35.422L40.49 37.205C42.2674 36.3017 43.6009 35.0706 44.4079 33.4877L42.6261 32.5793ZM39.578 35.4251C38.1761 36.1494 36.1689 36.5535 33.477 36.5535V38.5535C36.3317 38.5535 38.6979 38.131 40.496 37.2019L39.578 35.4251ZM33.477 36.5535H30.877V38.5535H33.477V36.5535ZM29.877 37.5535V40.6735H31.877V37.5535H29.877ZM30.877 41.6735H37.037V39.6735H30.877V41.6735ZM36.037 40.6735V44.5535H38.037V40.6735H36.037ZM37.037 43.5535H30.877V45.5535H37.037V43.5535ZM29.877 44.5535V48.8335H31.877V44.5535H29.877ZM30.877 47.8335H24.837V49.8335H30.877V47.8335ZM32.877 33.5935C34.682 33.5935 36.2292 33.2859 37.4281 32.573L36.4059 30.854C35.6315 31.3144 34.4853 31.5935 32.877 31.5935V33.5935ZM37.418 32.5789C38.7811 31.7898 39.437 30.4871 39.437 28.8735H37.437C37.437 29.8733 37.0796 30.4639 36.4159 30.8481L37.418 32.5789ZM39.437 28.8735C39.437 27.4203 38.9435 26.1826 37.8412 25.3467C36.7912 24.5504 35.3349 24.2335 33.637 24.2335V26.2335C35.1391 26.2335 36.0828 26.5232 36.6327 26.9403C37.1305 27.3178 37.437 27.9 37.437 28.8735H39.437ZM33.637 24.2335H30.877V26.2335H33.637V24.2335ZM29.877 25.2335V32.5935H31.877V25.2335H29.877ZM30.877 33.5935H32.877V31.5935H30.877V33.5935Z" fill="#B8BA21" fill-opacity="0.6"/>
<path opacity="0.6" d="M33.6875 55.3436C33.6875 66.418 42.6651 75.3957 53.7396 75.3957C58.081 75.3957 62.1002 74.016 65.3826 71.6711L73.0911 81.8123L77 78.604L68.9792 68.3765C71.9795 64.8714 73.7917 60.3191 73.7917 55.3436C73.7917 44.2691 64.814 35.2915 53.7396 35.2915C42.6651 35.2915 33.6875 44.2691 33.6875 55.3436Z" fill="#70D92A"/>
<circle opacity="0.5" cx="53.7396" cy="55.3436" r="15.2396" fill="white"/>
</svg>
